{"title":"Riddick.2013.Unrated.DC.1080p.BluRay.x264.AC3.5.1[JNBsMovies]","uid":10601618,"size":3045889909,"categoryP":"video","categoryS":"hd___movies","magnet":"?xt=urn:btih:9bff6f38509d2788542789248745e911c8305416&amp;dn=Riddick.2013.Unrated.DC.1080p.BluRay.x264.AC3.5.1%5BJNBsMovies%5D&amp;tr=udp%3A%2F%2Ftracker.openbittorrent.com%3A80&amp;tr=udp%3A%2F%2Fopen.demonii.com%3A1337&amp;tr=udp%3A%2F%2Ftracker.coppersurfer.tk%3A6969&amp;tr=udp%3A%2F%2Fexodus.desync.com%3A6969","seeders":4,"leechers":1,"uploader":"jnb_bd","files":3,"time":1405930230,"description":"Hello Downloader,\n\nGreetings to all! This is Joash from Bangladesh.\nMy encodes are meant to be the highest possible quality in smallest possible file size. Pro encoders like- Judas and Tomcat12 are my inspiration. I try to do all my encodes in tesa/11 profile. \n\nHope you all will enjoy my encodes. And one request: Please seed as long as possible.\n\n\n\nFind Me: \n\n &lt;a href=&quot;\nhttp://thepiratebay.se/user/jnb_bd&quot; rel=&quot;nofollow&quot; target=&quot;_NEW&quot;&gt;\nhttp://thepiratebay.se/user/jnb_bd&lt;/a&gt;\n\n\n\n\nInfo:\n\nGeneral\nFormat                                   : Matroska\nFormat version                           : Version 4 / Version 2\nFile size                                : 2.84 GiB\nDuration                                 : 2h 6mn\nOverall bit rate                         : 3 203 Kbps\nMovie name                               : Riddick (2013) [Unrated Director's Cut]\nEncoded date                             : UTC 2014-07-21 04:06:27\n\n\nVideo\nID                                       : 1\nFormat                                   : AVC\nFormat/Info                              : Advanced Video Codec\nFormat profile                           : &lt;a class=&quot;__cf_email__&quot; href=&quot;/cdn-cgi/l/email-protection&quot; data-cfemail=&quot;d199b8b6b9919de4ffe0&quot;&gt;[email&amp;#160;protected]&lt;/a&gt;&lt;script cf-hash='f9e31' type=&quot;text/javascript&quot;&gt;\n/* &lt;![CDATA[ */!function(){try{var t=&quot;currentScript&quot;in document?document.currentScript:function(){for(var t=document.getElementsByTagName(&quot;script&quot;),e=t.length;e--;)if(t[e].getAttribute(&quot;cf-hash&quot;))return t[e]}();if(t&amp;&amp;t.previousSibling){var e,r,n,i,c=t.previousSibling,a=c.getAttribute(&quot;data-cfemail&quot;);if(a){for(e=&quot;&quot;,r=parseInt(a.substr(0,2),16),n=2;a.length-n;n+=2)i=parseInt(a.substr(n,2),16)^r,e+=String.fromCharCode(i);e=document.createTextNode(e),c.parentNode.replaceChild(e,c)}}}catch(u){}}();/* ]]&gt; */&lt;/script&gt;\nFormat settings, CABAC                   : Yes\nFormat settings, ReFrames                : 8 frames\nCodec ID                                 : V_MPEG4/ISO/AVC\nDuration                                 : 2h 6mn\nBit rate                                 : 2 499 Kbps\nWidth                                    : 1 920 pixels\nHeight                                   : 800 pixels\nDisplay aspect ratio                     : 2.40:1\nFrame rate mode                          : Constant\nFrame rate                               : 23.976 fps\nColor space                              : YUV\nChroma subsampling                       : 4:2:0\nBit depth                                : 8 bits\nScan type                                : Progressive\nBits/(Pixel*Frame)                       : 0.068\nStream size                              : 2.21 GiB (78%)\nTitle                                    : Riddick (2013) [Unrated Director's Cut]\nWriting library                          : x264 core 133 r2334 a3ac64b\nEncoding settings                        : cabac=1 / ref=8 / deblock=1:-3:-3 / analyse=0x3:0x133 / me=tesa / subme=11 / psy=1 / psy_rd=1.00:0.15 / mixed_ref=1 / me_range=16 / chroma_me=1 / trellis=2 / 8x8dct=1 / cqm=0 / deadzone=21,11 / fast_pskip=1 / chroma_qp_offset=-3 / threads=6 / lookahead_threads=1 / sliced_threads=0 / nr=0 / decimate=1 / interlaced=0 / bluray_compat=0 / constrained_intra=0 / bframes=3 / b_pyramid=2 / b_adapt=2 / b_bias=0 / direct=1 / weightb=1 / open_gop=0 / weightp=2 / keyint=240 / keyint_min=24 / scenecut=40 / intra_refresh=0 / rc_lookahead=60 / rc=crf / mbtree=1 / crf=23.0 / qcomp=0.60 / qpmin=0 / qpmax=69 / qpstep=4 / ip_ratio=1.40 / aq=1:1.00\nLanguage                                 : English\nDefault                                  : Yes\nForced                                   : No\n\nAudio\nID                                       : 2\nFormat                                   : AC-3\nFormat/Info                              : Audio Coding 3\nMode extension                           : CM (complete main)\nFormat settings, Endianness              : Big\nCodec ID                                 : A_AC3\nDuration                                 : 2h 6mn\nBit rate mode                            : Constant\nBit rate                                 : 640 Kbps\nChannel(s)                               : 6 channels\nChannel positions                        : Front: L C R, Side: L R, LFE\nSampling rate                            : 48.0 KHz\nBit depth                                : 16 bits\nCompression mode                         : Lossy\nStream size                              : 580 MiB (20%)\nLanguage                                 : English\nDefault                                  : Yes\nForced                                   : Yes\n\nText #1\nID                                       : 3\nFormat                                   : ASS\nCodec ID                                 : S_TEXT/ASS\nCodec ID/Info                            : Advanced Sub Station Alpha\nCompression mode                         : Lossless\nLanguage                                 : English\nDefault                                  : Yes\nForced                                   : Yes\n\nText #2\nID                                       : 4\nFormat                                   : PGS\nMuxing mode                              : zlib\nCodec ID                                 : S_HDMV/PGS\nCodec ID/Info                            : The same subtitle format used on BDs/HD-DVDs\nLanguage                                 : English\nDefault                                  : No\nForced                                   : No\n\nText #3\nID                                       : 5\nFormat                                   : PGS\nMuxing mode                              : zlib\nCodec ID                                 : S_HDMV/PGS\nCodec ID/Info                            : The same subtitle format used on BDs/HD-DVDs\nLanguage                                 : Spanish\nDefault                                  : No\nForced                                   : No\n\nText #4\nID                                       : 6\nFormat                                   : PGS\nMuxing mode                              : zlib\nCodec ID                                 : S_HDMV/PGS\nCodec ID/Info                            : The same subtitle format used on BDs/HD-DVDs\nLanguage                                 : French\nDefault                                  : No\nForced                                   : No\n\nMenu\n00:00:00.000                             : en:00:00:00.000\n00:05:35.418                             : en:00:05:35.418\n00:12:10.521                             : en:00:12:10.521\n00:23:27.364                             : en:00:23:27.364\n00:27:56.425                             : en:00:27:56.425\n00:32:11.221                             : en:00:32:11.221\n00:38:03.698                             : en:00:38:03.698\n00:44:20.283                             : en:00:44:20.283\n00:48:40.876                             : en:00:48:40.876\n00:56:19.668                             : en:00:56:19.668\n01:01:16.673                             : en:01:01:16.673\n01:07:35.093                             : en:01:07:35.093\n01:15:23.436                             : en:01:15:23.436\n01:19:58.836                             : en:01:19:58.836\n01:26:51.832                             : en:01:26:51.832\n01:31:27.107                             : en:01:31:27.107\n01:39:32.717                             : en:01:39:32.717\n01:45:32.701                             : en:01:45:32.701\n01:53:45.652                             : en:01:53:45.652\n02:02:56.160                             : en:02:02:56.160\n","torrent":{"xt":"urn:btih:9bff6f38509d2788542789248745e911c8305416","amp;dn":"Riddick.2013.Unrated.DC.1080p.BluRay.x264.AC3.5.1%5BJNBsMovies%5D","amp;tr":["udp%3A%2F%2Ftracker.openbittorrent.com%3A80","udp%3A%2F%2Fopen.demonii.com%3A1337","udp%3A%2F%2Ftracker.coppersurfer.tk%3A6969","udp%3A%2F%2Fexodus.desync.com%3A6969"],"infoHash":"9bff6f38509d2788542789248745e911c8305416","infoHashBuffer":{"type":"Buffer","data":[155,255,111,56,80,157,39,136,84,39,137,36,135,69,233,17,200,48,84,22]},"announce":[],"urlList":[]}}